# xmcd
#
# Track frame offsets:
#	150
#	12338
#	26201
#	40835
#	52272
#	64885
#	80115
#	98839
#	108903
#	123598
#	138780
#	150323
#	162528
#
# Disc length: 2451 seconds
#
# Revision: 1
# Processed by: cddbd v1.5.2PL0 Copyright (c) Steve Scherf et al.
# Submitted via: audiograbber 1.83.01
#
DISCID=af09910d
DTITLE=Glove Trucker - Tengo Sueno
DYEAR=2009
DGENRE=
TTITLE0=Why The Hell?
TTITLE1=Sun Is Shining
TTITLE2=Tequila and Goldfingers
TTITLE3=Bury My Head
TTITLE4=3$ Moonshine
TTITLE5=Southwest Texas Blues
TTITLE6=Kenley
TTITLE7=Gonna Get Lit
TTITLE8=Kentucky Woes
TTITLE9=Drunk Phone Call
TTITLE10=This Ain't Funny
TTITLE11=Try To Make It Right
TTITLE12=Sweet Melanie
EXTD=www.glovetrucker.com\nwww.myspace.com/bjbronco
EXTT0=
EXTT1=
EXTT2=
EXTT3=
EXTT4=
EXTT5=
EXTT6=
EXTT7=
EXTT8=
EXTT9=
EXTT10=
EXTT11=
EXTT12=
PLAYORDER=
